<?xml version="1.0" encoding="UTF-8"?>
<svg xmlns="http://www.w3.org/2000/svg" viewBox="0 0 64 64" shape-rendering="crispEdges" role="img" aria-labelledby="title desc">
  <title id="title">Web foundation pixel interface</title>
  <desc id="desc">Pixel art visual asset for GroveX website cards and hero panels.</desc>
  <rect width="64" height="64" fill="#071419"/>
  <rect x="0" y="0" width="1" height="64" fill="#5eead4" opacity="0.05"/><rect x="4" y="0" width="1" height="64" fill="#5eead4" opacity="0.05"/><rect x="8" y="0" width="1" height="64" fill="#5eead4" opacity="0.05"/><rect x="12" y="0" width="1" height="64" fill="#5eead4" opacity="0.05"/><rect x="16" y="0" width="1" height="64" fill="#5eead4" opacity="0.05"/><rect x="20" y="0" width="1" height="64" fill="#5eead4" opacity="0.05"/><rect x="24" y="0" width="1" height="64" fill="#5eead4" opacity="0.05"/><rect x="28" y="0" width="1" height="64" fill="#5eead4" opacity="0.05"/><rect x="32" y="0" width="1" height="64" fill="#5eead4" opacity="0.05"/><rect x="36" y="0" width="1" height="64" fill="#5eead4" opacity="0.05"/><rect x="40" y="0" width="1" height="64" fill="#5eead4" opacity="0.05"/><rect x="44" y="0" width="1" height="64" fill="#5eead4" opacity="0.05"/><rect x="48" y="0" width="1" height="64" fill="#5eead4" opacity="0.05"/><rect x="52" y="0" width="1" height="64" fill="#5eead4" opacity="0.05"/><rect x="56" y="0" width="1" height="64" fill="#5eead4" opacity="0.05"/><rect x="60" y="0" width="1" height="64" fill="#5eead4" opacity="0.05"/><rect x="0" y="0" width="64" height="1" fill="#60a5fa" opacity="0.045"/><rect x="0" y="4" width="64" height="1" fill="#60a5fa" opacity="0.045"/><rect x="0" y="8" width="64" height="1" fill="#60a5fa" opacity="0.045"/><rect x="0" y="12" width="64" height="1" fill="#60a5fa" opacity="0.045"/><rect x="0" y="16" width="64" height="1" fill="#60a5fa" opacity="0.045"/><rect x="0" y="20" width="64" height="1" fill="#60a5fa" opacity="0.045"/><rect x="0" y="24" width="64" height="1" fill="#60a5fa" opacity="0.045"/><rect x="0" y="28" width="64" height="1" fill="#60a5fa" opacity="0.045"/><rect x="0" y="32" width="64" height="1" fill="#60a5fa" opacity="0.045"/><rect x="0" y="36" width="64" height="1" fill="#60a5fa" opacity="0.045"/><rect x="0" y="40" width="64" height="1" fill="#60a5fa" opacity="0.045"/><rect x="0" y="44" width="64" height="1" fill="#60a5fa" opacity="0.045"/><rect x="0" y="48" width="64" height="1" fill="#60a5fa" opacity="0.045"/><rect x="0" y="52" width="64" height="1" fill="#60a5fa" opacity="0.045"/><rect x="0" y="56" width="64" height="1" fill="#60a5fa" opacity="0.045"/><rect x="0" y="60" width="64" height="1" fill="#60a5fa" opacity="0.045"/>
  
  <rect x="6" y="9" width="52" height="42" fill="#102a33"/><rect x="8" y="11" width="48" height="38" fill="#edfdfb"/>
  <rect x="8" y="11" width="48" height="7" fill="#0d9488"/><rect x="11" y="13" width="3" height="3" fill="#f5c451"/><rect x="16" y="13" width="3" height="3" fill="#5eead4"/><rect x="21" y="13" width="3" height="3" fill="#60a5fa"/>
  <rect x="12" y="23" width="18" height="4" fill="#0b2f35"/><rect x="12" y="29" width="26" height="3" fill="#0d9488"/><rect x="12" y="35" width="14" height="3" fill="#60a5fa"/>
  <rect x="39" y="23" width="10" height="16" fill="#d7faf5"/><rect x="41" y="25" width="6" height="4" fill="#0d9488"/><rect x="41" y="31" width="6" height="2" fill="#60a5fa"/><rect x="41" y="35" width="4" height="2" fill="#f5c451"/>
  <rect x="18" y="53" width="28" height="3" fill="#334155"/><rect x="25" y="50" width="14" height="3" fill="#334155"/>
  
</svg>
